<svg width="48" height="50" viewBox="0 0 48 50" fill="none" xmlns="http://www.w3.org/2000/svg">
<g id="Group">
<path id="Vector" d="M15.4924 10.3077L16.5308 14.4615M30.0308 10.3077L28.9924 14.4615M41.4539 22.7692H7.47546C6.98857 22.7758 6.51548 22.6075 6.14203 22.295C5.76858 21.9826 5.51954 21.5466 5.44008 21.0662L2.03393 4.45077C1.97925 4.15196 1.99078 3.8448 2.06771 3.55093C2.14464 3.25706 2.28509 2.98365 2.47917 2.74996C2.67325 2.51627 2.91622 2.32801 3.19097 2.19843C3.46572 2.06885 3.76554 2.00111 4.06931 2H45.6078L41.4539 22.7692ZM41.4539 22.7692L39.7093 31.4923C39.6135 31.9614 39.3586 32.3831 38.9877 32.6858C38.6168 32.9886 38.1527 33.1539 37.6739 33.1538H12.377" stroke="#FF87A6" stroke-opacity="0.5" stroke-width="3" stroke-linecap="round" stroke-linejoin="round"/>
<path id="Vector_2" d="M14.4519 47.6929C15.599 47.6929 16.5288 46.763 16.5288 45.616C16.5288 44.4689 15.599 43.5391 14.4519 43.5391C13.3049 43.5391 12.375 44.4689 12.375 45.616C12.375 46.763 13.3049 47.6929 14.4519 47.6929Z" stroke="#FF87A6" stroke-opacity="0.5" stroke-width="3" stroke-linecap="round" stroke-linejoin="round"/>
<path id="Vector_3" d="M35.2254 47.6929C36.3724 47.6929 37.3023 46.763 37.3023 45.616C37.3023 44.4689 36.3724 43.5391 35.2254 43.5391C34.0783 43.5391 33.1484 44.4689 33.1484 45.616C33.1484 46.763 34.0783 47.6929 35.2254 47.6929Z" stroke="#FF87A6" stroke-opacity="0.5" stroke-width="3" stroke-linecap="round" stroke-linejoin="round"/>
</g>
</svg>
