<svg width="51" height="51" viewBox="0 0 51 51" fill="none" xmlns="http://www.w3.org/2000/svg">
<g id="Group">
<path id="Vector" d="M46.2308 10.4219H4.76923C2.68754 10.4219 1 12.1094 1 14.1911V25.4988C1 27.5805 2.68754 29.268 4.76923 29.268H46.2308C48.3125 29.268 50 27.5805 50 25.4988V14.1911C50 12.1094 48.3125 10.4219 46.2308 10.4219Z" stroke="#FF87A6" stroke-opacity="0.5" stroke-width="2" stroke-linecap="round" stroke-linejoin="round"/>
<path id="Vector_2" d="M46.2312 29.2692V46.2308C46.2312 47.2304 45.8341 48.1892 45.1272 48.896C44.4203 49.6029 43.4616 50 42.4619 50H8.53887C7.53921 50 6.58049 49.6029 5.87362 48.896C5.16675 48.1892 4.76964 47.2304 4.76964 46.2308V29.2692M25.5004 10.4231V50M25.5004 10.4231L36.8081 1M25.5004 10.4231L14.1927 1" stroke="#FF87A6" stroke-opacity="0.5" stroke-width="2" stroke-linecap="round" stroke-linejoin="round"/>
</g>
</svg>
