<svg width="60" height="9" viewBox="0 0 60 9" fill="none" xmlns="http://www.w3.org/2000/svg">
<g id="Group">
<path id="Vector" d="M5.90707 6.60357C5.72676 6.60357 5.51853 6.53246 5.28066 6.39109C5.04364 6.24888 4.79138 6.06096 4.52558 5.82648C4.25978 5.592 3.99821 5.3372 3.74003 5.06124C3.48269 4.78612 3.24482 4.51186 3.02812 4.23844C2.81141 3.96587 2.62941 3.72292 2.48212 3.51044L1.29194 6.07958C1.23438 6.20486 1.14465 6.29374 1.0219 6.34538C0.899162 6.39702 0.766261 6.42834 0.623202 6.43935C0.480143 6.45035 0.338778 6.45543 0.199951 6.45543C0.305764 6.30306 0.414963 6.12783 0.525008 5.93144C0.6359 5.73506 0.76626 5.49803 0.917784 5.21953C1.06931 4.94103 1.24708 4.60328 1.45193 4.20458C1.65678 3.80672 1.89973 3.33014 2.18246 2.77653C2.46434 2.22291 2.79787 1.5728 3.18303 0.82534C3.20757 0.781322 3.24059 0.720375 3.28122 0.64165C3.32185 0.562926 3.34302 0.490127 3.34302 0.424946C3.34302 0.364844 3.3227 0.31744 3.28122 0.281887C3.24059 0.246334 3.16271 0.228557 3.04843 0.228557C2.85204 0.228557 2.66158 0.281887 2.47789 0.3877C2.2942 0.493512 2.12998 0.628951 1.98692 0.793172C1.84386 0.956547 1.73127 1.12585 1.64916 1.30023C1.56705 1.47461 1.52642 1.63036 1.52642 1.76665C1.52642 1.87077 1.54674 1.96304 1.58737 2.04515C1.31733 2.04515 1.12687 2.00029 1.01683 1.91056C0.905934 1.82083 0.850912 1.70993 0.850912 1.57872C0.850912 1.39334 0.932176 1.20796 1.0964 1.02258C1.25977 0.837192 1.47055 0.666196 1.72873 0.511286C1.98692 0.355529 2.25695 0.231943 2.53884 0.138828C2.82072 0.0465589 3.07637 0 3.30577 0C3.52671 0 3.67569 0.0406332 3.75357 0.122744C3.83145 0.204855 3.87038 0.294584 3.87038 0.392778C3.87038 0.45288 3.86023 0.512982 3.83991 0.573084C3.8196 0.633186 3.79674 0.690745 3.77219 0.744921L2.74115 2.97037C2.85543 2.86118 3.00526 2.76045 3.18895 2.66733C3.37264 2.57506 3.5758 2.4684 3.79674 2.3482C4.16497 2.15181 4.55944 1.92241 4.981 1.66084C5.40255 1.39927 5.80549 1.12331 6.1898 0.83465C6.57411 0.545146 6.89325 0.267495 7.1472 0C7.18783 0.0330136 7.21661 0.0897266 7.23354 0.171837C7.24962 0.253948 7.25809 0.316592 7.25809 0.359764C7.25809 0.529064 7.15397 0.714449 6.94488 0.915916C6.7358 1.11738 6.46407 1.32647 6.12886 1.54148C5.79364 1.75734 5.42541 1.96981 5.02417 2.17974C4.62293 2.38968 4.22846 2.58776 3.83991 2.77314C3.45137 2.95853 3.10092 3.11936 2.79025 3.25565C3.03574 3.53414 3.27529 3.79825 3.50808 4.04967C3.74087 4.30023 3.99482 4.54572 4.26909 4.78612C4.54336 5.02653 4.86418 5.27202 5.23241 5.52258C5.60064 5.77315 6.04674 6.04318 6.56988 6.33269C6.51232 6.40379 6.42259 6.46643 6.29985 6.52061C6.1771 6.57648 6.0459 6.60357 5.90707 6.60357Z" fill="black"/>
<path id="Vector_2" d="M12.4738 6.29238C11.9744 6.29238 11.6045 6.19165 11.3632 5.98934C11.122 5.78787 11.0009 5.54492 11.0009 5.26134C10.6488 5.57201 10.2441 5.81496 9.78618 5.98934C9.32822 6.16372 8.86519 6.2509 8.39961 6.2509C7.90017 6.2509 7.52602 6.15948 7.2763 5.97664C7.02658 5.79379 6.90215 5.56863 6.90215 5.30198C6.90215 5.05649 6.99441 4.79746 7.17811 4.52488C7.36264 4.25231 7.60813 3.99582 7.91456 3.75542C8.221 3.51586 8.55875 3.32031 8.92698 3.17048C9.29521 3.02065 9.6592 2.94531 10.0198 2.94531C10.2077 2.94531 10.3821 2.97832 10.5413 3.0435C10.7013 3.10869 10.7808 3.24244 10.7808 3.44475C10.7808 3.65214 10.6886 3.84684 10.5049 4.02968C10.3212 4.21253 10.0791 4.37506 9.7811 4.51642C9.48229 4.65863 9.15469 4.77376 8.79916 4.86433C8.44363 4.95491 8.08894 5.00993 7.73765 5.03194C7.72156 5.08697 7.70886 5.1386 7.7004 5.1877C7.69193 5.23679 7.6877 5.28335 7.6877 5.32652C7.6877 5.43572 7.71648 5.54323 7.77404 5.64989C7.83076 5.75655 7.92895 5.84374 8.06863 5.91146C8.20745 5.98002 8.40384 6.01388 8.65779 6.01388C9.0912 6.01388 9.52122 5.91146 9.94702 5.70745C10.372 5.5026 10.7444 5.25034 11.0636 4.95068C11.1372 4.7272 11.2684 4.50372 11.4563 4.2794C11.6443 4.05592 11.872 3.85276 12.1378 3.66992C12.4036 3.48707 12.6922 3.33979 13.0029 3.22805C13.3136 3.11631 13.6293 3.06044 13.9484 3.06044C14.1364 3.06044 14.3107 3.09345 14.4699 3.15863C14.629 3.22381 14.7094 3.35756 14.7094 3.55987C14.7094 3.83837 14.5681 4.08216 14.2862 4.2921C14.0043 4.50203 13.642 4.66964 13.2001 4.79577C12.7582 4.92105 12.3045 5.00062 11.8381 5.03279C11.822 5.08781 11.8093 5.13945 11.8009 5.18854C11.7924 5.23764 11.7882 5.2842 11.7882 5.32737C11.7882 5.43657 11.8144 5.54831 11.8677 5.66258C11.9211 5.77686 12.015 5.87083 12.1496 5.94447C12.2851 6.01812 12.4789 6.05452 12.7329 6.05452C13.085 6.05452 13.4363 5.98511 13.7884 5.84628C14.1406 5.70745 14.4673 5.5246 14.7704 5.29774C15.0734 5.07173 15.3265 4.82709 15.5314 4.56552L15.6787 4.63917C15.4577 4.96676 15.1733 5.25457 14.8254 5.5026C14.4775 5.75062 14.1017 5.94447 13.6962 6.0833C13.2899 6.22297 12.8827 6.29238 12.4738 6.29238ZM7.79774 4.87618C8.01868 4.82709 8.2684 4.75514 8.54605 4.65948C8.82455 4.56383 9.09205 4.45124 9.35023 4.32003C9.60842 4.18882 9.82089 4.04492 9.98849 3.88662C10.1561 3.72833 10.2399 3.56242 10.2399 3.38719C10.2399 3.32709 10.2238 3.28053 10.1908 3.24836C10.1578 3.21535 10.0884 3.19926 9.98257 3.19926C9.78618 3.19926 9.5771 3.25005 9.35616 3.35079C9.13522 3.45152 8.92275 3.58357 8.71789 3.7478C8.51304 3.91117 8.32935 4.09148 8.16513 4.28786C8.00175 4.48341 7.87901 4.6798 7.79774 4.87618ZM11.8974 4.87618C12.1183 4.82709 12.3596 4.76191 12.622 4.6798C12.8835 4.59768 13.1333 4.50118 13.3711 4.38945C13.6081 4.27771 13.8045 4.14989 13.9603 4.00514C14.1152 3.86038 14.1931 3.70124 14.1931 3.52686C14.1931 3.46676 14.1728 3.41597 14.1313 3.37534C14.0906 3.33471 14.017 3.31439 13.9103 3.31439C13.6488 3.31439 13.3847 3.39057 13.1189 3.54379C12.8531 3.69616 12.6118 3.8917 12.3943 4.12872C12.1776 4.3649 12.0116 4.61462 11.8974 4.87618Z" fill="black"/>
<path id="Vector_3" d="M14.4999 8.18772C14.4347 8.18772 14.3712 8.16487 14.3094 8.11831C14.2476 8.07175 14.201 8.02265 14.168 7.97102C14.135 7.91938 14.1189 7.88806 14.1189 7.87706C14.2332 7.60956 14.3458 7.37085 14.4567 7.16091C14.5676 6.95098 14.6776 6.73512 14.7885 6.51418C14.8986 6.29325 15.0078 6.03422 15.1136 5.7371C15.2202 5.43997 15.3303 5.07005 15.4454 4.62818C15.5597 4.1863 15.6748 3.63777 15.7891 2.98343C15.7976 2.93433 15.8136 2.89877 15.8382 2.87676C15.8627 2.85476 15.9237 2.84375 16.0219 2.84375C16.2344 2.84375 16.3859 2.88354 16.4764 2.96226C16.5662 3.04099 16.611 3.12733 16.611 3.2196C16.611 3.29578 16.5865 3.43207 16.5374 3.62846C16.4883 3.82485 16.4189 4.05679 16.3292 4.32428C16.468 4.14398 16.6424 3.96113 16.8506 3.77575C17.0588 3.59037 17.2984 3.43461 17.5684 3.30933C17.8385 3.18404 18.1331 3.12141 18.4522 3.12141C18.812 3.12141 19.1091 3.20775 19.3419 3.37874C19.5746 3.55058 19.6915 3.77575 19.6915 4.05425C19.6915 4.26672 19.6195 4.49189 19.4765 4.72891C19.3334 4.96593 19.1328 5.19026 18.8754 5.40019C18.6181 5.61012 18.3125 5.78111 17.9612 5.91147C17.6091 6.04268 17.2205 6.10786 16.7956 6.10786C16.5823 6.10786 16.4113 6.09178 16.2801 6.05877C16.1489 6.02576 16.0837 5.99359 16.0837 5.96057C16.0837 5.93856 16.1141 5.92671 16.1759 5.92333C16.2377 5.92079 16.3088 5.9191 16.391 5.9191C16.7185 5.9191 17.0309 5.86576 17.3297 5.75911C17.6285 5.65245 17.896 5.51193 18.1339 5.33755C18.3709 5.16317 18.5572 4.96932 18.6926 4.75685C18.8272 4.54438 18.8949 4.33444 18.8949 4.12705C18.8949 3.95267 18.8399 3.80369 18.729 3.68094C18.6189 3.5582 18.4403 3.49725 18.1948 3.49725C17.9824 3.49725 17.7716 3.54211 17.5625 3.63184C17.3534 3.72157 17.157 3.8367 16.9733 3.97552C16.7888 4.11435 16.6254 4.2591 16.4824 4.40893C16.3393 4.55876 16.231 4.69421 16.1573 4.81356C16.01 5.22242 15.8627 5.61689 15.7154 5.99612C15.5682 6.37536 15.4268 6.71904 15.2922 7.02716C15.1568 7.33529 15.0349 7.58755 14.924 7.78394C14.8139 7.98033 14.7217 8.10053 14.648 8.1437C14.6057 8.17418 14.5566 8.18772 14.4999 8.18772Z" fill="black"/>
<path id="Vector_4" d="M24.1471 6.10735C23.828 6.10735 23.5901 6.04048 23.4352 5.90673C23.2795 5.77299 23.2024 5.61046 23.2024 5.41999C23.2024 5.29471 23.2371 5.13642 23.3066 4.94511C23.376 4.75464 23.4682 4.55402 23.5825 4.34409C23.6968 4.13415 23.8297 3.93608 23.9812 3.75069C24.1327 3.56531 24.2944 3.41378 24.4663 3.29612C24.6381 3.1793 24.8057 3.12005 24.9699 3.12005C25.0436 3.12005 25.1071 3.13528 25.1604 3.16491C25.2137 3.19454 25.24 3.24025 25.24 3.29951C25.24 3.36469 25.1765 3.47134 25.0495 3.61863C24.9225 3.76593 24.7735 3.93523 24.6017 4.12569C24.4299 4.317 24.2809 4.51678 24.1539 4.72671C24.0269 4.93664 23.9634 5.13726 23.9634 5.32857C23.9634 5.52496 24.0125 5.65617 24.1107 5.72135C24.2089 5.78653 24.3605 5.81954 24.5653 5.81954C24.8438 5.81954 25.1401 5.72727 25.455 5.54104C25.7699 5.35566 26.1034 5.03145 26.4555 4.56757L26.5656 4.64968C26.3286 5.11864 25.9866 5.47925 25.5405 5.72981C25.0935 5.98207 24.6296 6.10735 24.1471 6.10735ZM25.6192 2.35989C25.488 2.35989 25.372 2.33788 25.2696 2.29471C25.1672 2.25069 25.1164 2.18297 25.1164 2.08985C25.1164 1.97557 25.2163 1.87569 25.4169 1.79104C25.6175 1.70639 25.8156 1.66406 26.012 1.66406C26.1347 1.66406 26.2329 1.68353 26.3066 1.72162C26.3802 1.75972 26.4166 1.82574 26.4166 1.91801C26.4166 2.02129 26.3328 2.12117 26.1652 2.21683C25.9984 2.31248 25.8164 2.35989 25.6192 2.35989Z" fill="black"/>
<path id="Vector_5" d="M27.2639 6.26186C26.9118 6.26186 26.6417 6.19329 26.4538 6.05701C26.2659 5.92072 26.1719 5.71925 26.1719 5.45175C26.1719 5.21219 26.2396 4.91592 26.3742 4.56377C26.5088 4.21163 26.679 3.85102 26.8838 3.4794C26.8017 3.4684 26.7247 3.45909 26.651 3.45062C26.5774 3.44216 26.508 3.43031 26.4428 3.41422V3.26693C26.508 3.27201 26.5859 3.27794 26.6756 3.28302C26.7653 3.28809 26.8677 3.29402 26.982 3.2991C27.1539 3.00452 27.3384 2.71925 27.5339 2.44413C27.7303 2.16902 27.925 1.92353 28.1172 1.70767C28.3093 1.49266 28.4939 1.31997 28.67 1.19215C28.846 1.06433 28.995 1 29.1178 1C29.1829 1 29.2422 1.01523 29.2955 1.04486C29.3488 1.07449 29.3751 1.1202 29.3751 1.17946C29.3751 1.27257 29.2896 1.42325 29.1178 1.63403C28.9459 1.84396 28.7334 2.09368 28.4795 2.38233C28.2255 2.67184 27.9801 2.98504 27.743 3.32365C27.8167 3.32365 27.892 3.32365 27.9699 3.32365C28.0478 3.32365 28.1231 3.32365 28.1968 3.32365C28.4668 3.32365 28.7512 3.32111 29.05 3.31518C29.3488 3.3101 29.6494 3.29571 29.9524 3.27455V3.42184C29.5021 3.45486 29.0991 3.4794 28.7436 3.49549C28.3881 3.51157 28.0706 3.52003 27.7921 3.52003C27.7591 3.52003 27.7286 3.52003 27.6999 3.52003C27.6711 3.52003 27.6406 3.52003 27.6076 3.52003C27.4197 3.80954 27.2597 4.10666 27.1293 4.41225C26.9981 4.71784 26.9329 5.01496 26.9329 5.30446C26.9329 5.53894 26.9863 5.70655 27.0921 5.80729C27.1979 5.90802 27.374 5.95881 27.6203 5.95881C28.0461 5.95881 28.4634 5.83353 28.8723 5.58212C29.2811 5.33155 29.6409 4.99041 29.9524 4.55954L30.1115 4.64165C29.9152 4.94724 29.6671 5.22235 29.3692 5.46784C29.0703 5.71332 28.7411 5.90717 28.3813 6.04854C28.0207 6.19075 27.6491 6.26186 27.2639 6.26186Z" fill="black"/>
<path id="Vector_6" d="M34.2237 6.34848C33.8309 6.34848 33.5033 6.26129 33.2417 6.08691C32.9801 5.91253 32.8489 5.65097 32.8489 5.30136C32.8489 5.02879 32.9285 4.76298 33.0885 4.5031C33.2476 4.24407 33.4584 4.01129 33.7208 3.8039C33.9824 3.5965 34.2727 3.43143 34.5919 3.30869C34.911 3.18595 35.2259 3.125 35.5374 3.125C35.8726 3.125 36.102 3.19018 36.2248 3.32139C36.3475 3.4526 36.4085 3.58889 36.4085 3.73025C36.4085 3.88855 36.3534 4.02737 36.2426 4.14758C36.1325 4.26778 35.9827 4.32788 35.7948 4.32788C35.6559 4.32788 35.5374 4.28725 35.4384 4.20514C35.5611 4.16197 35.6678 4.07308 35.7575 3.93934C35.8472 3.80559 35.893 3.67861 35.893 3.55841C35.893 3.49323 35.8743 3.44244 35.8379 3.40689C35.8007 3.37133 35.7296 3.35356 35.6229 3.35356C35.402 3.35356 35.1751 3.41874 34.9415 3.54995C34.7087 3.68115 34.4911 3.84961 34.2914 4.057C34.0907 4.26439 33.9274 4.48279 33.8004 4.71135C33.6734 4.94075 33.6099 5.15576 33.6099 5.35807C33.6099 5.52737 33.6717 5.68229 33.7945 5.8245C33.9172 5.96586 34.1542 6.03697 34.5064 6.03697C34.834 6.03697 35.1633 5.97687 35.4942 5.85667C35.8252 5.73646 36.1342 5.56462 36.4212 5.34114C36.7073 5.11767 36.9367 4.85525 37.1085 4.55559L37.2677 4.6377C37.0797 4.9653 36.8216 5.25819 36.4948 5.51722C36.1672 5.77625 35.8075 5.97941 35.4147 6.1267C35.0211 6.27484 34.624 6.34848 34.2237 6.34848Z" fill="black"/>
<path id="Vector_7" d="M37.8938 6.13799C37.5417 6.13799 37.2902 6.05757 37.1387 5.89674C36.9872 5.7359 36.9119 5.53528 36.9119 5.29572C36.9119 5.03415 36.9855 4.72264 37.1328 4.36287C37.2801 4.00311 37.4748 3.62388 37.716 3.22517C37.9573 2.82732 38.2214 2.43877 38.5075 2.0587C38.7936 1.67946 39.0798 1.33494 39.3667 1.02342C39.6528 0.712757 39.9169 0.463882 40.1582 0.278498C40.3995 0.0931134 40.5899 0 40.7287 0C40.8185 0 40.8921 0.033862 40.9497 0.102429C41.0072 0.170995 41.0521 0.252257 41.0851 0.347911C41.1173 0.443566 41.1342 0.529066 41.1342 0.605251C41.1342 0.752543 41.0792 0.944694 40.9683 1.18256C40.8583 1.41958 40.7025 1.68454 40.5019 1.97658C40.3013 2.26863 40.0642 2.56321 39.79 2.86033C39.5157 3.15745 39.2169 3.44273 38.8944 3.7153C38.571 3.98788 38.2299 4.22236 37.8693 4.41874C37.8202 4.56604 37.7812 4.7091 37.7524 4.84877C37.7237 4.9876 37.7093 5.12049 37.7093 5.24577C37.7093 5.45825 37.7541 5.61655 37.8439 5.72067C37.9336 5.82394 38.069 5.87642 38.2493 5.87642C38.4703 5.87642 38.6895 5.81124 38.9062 5.68003C39.1229 5.54882 39.3278 5.38376 39.5199 5.18483C39.7121 4.9859 39.878 4.7802 40.0168 4.56688L40.2005 4.63206C39.8729 5.09594 39.5174 5.46248 39.1322 5.73251C38.7488 6.00339 38.3357 6.13799 37.8938 6.13799ZM37.9801 4.14109C38.2663 3.94978 38.5448 3.73054 38.8148 3.48251C39.0848 3.23449 39.3362 2.9763 39.5699 2.70966C39.8035 2.44216 40.0101 2.18313 40.1895 1.93257C40.369 1.682 40.5086 1.45683 40.6068 1.2579C40.705 1.05897 40.7541 0.904913 40.7541 0.795715C40.7541 0.741538 40.744 0.705984 40.7237 0.689054C40.7033 0.672971 40.6847 0.664503 40.6686 0.664503C40.6035 0.664503 40.4909 0.733918 40.3309 0.872744C40.1717 1.01157 39.9855 1.19865 39.7722 1.43313C39.5597 1.66761 39.343 1.93511 39.1221 2.23477C38.9011 2.53443 38.6904 2.84848 38.4897 3.17608C38.2883 3.50283 38.119 3.82534 37.9801 4.14109Z" fill="black"/>
<path id="Vector_8" d="M40.3607 6.26859C40.1068 6.26859 39.8918 6.21272 39.7166 6.10098C39.5405 5.98924 39.4524 5.8191 39.4524 5.5897C39.4524 5.39331 39.5176 5.18168 39.6488 4.95567C39.7792 4.72965 39.9595 4.50533 40.1889 4.28439C40.4183 4.06345 40.6782 3.86198 40.9685 3.67914C41.2589 3.4963 41.5653 3.3507 41.8895 3.2415C42.2129 3.1323 42.5337 3.07812 42.8528 3.07812C43.172 3.07812 43.4378 3.13399 43.6503 3.24573C43.8627 3.35747 43.9694 3.50646 43.9694 3.69184C43.9694 3.82813 43.9144 3.92124 43.8035 3.97034C43.6926 4.01943 43.5478 4.04398 43.3675 4.04398C43.3836 3.99996 43.398 3.95256 43.4107 3.90092C43.4234 3.84929 43.4293 3.80188 43.4293 3.75786C43.4293 3.63258 43.3844 3.52508 43.2947 3.4345C43.2041 3.34477 43.0492 3.29991 42.8283 3.29991C42.5989 3.29991 42.3661 3.35324 42.1282 3.45905C41.8912 3.56571 41.6618 3.70707 41.4409 3.88484C41.2199 4.0626 41.0236 4.25476 40.8517 4.46215C40.6799 4.66955 40.5453 4.8744 40.4462 5.07587C40.348 5.27734 40.2989 5.45764 40.2989 5.61594C40.2989 5.82841 40.409 5.93507 40.6308 5.93507C40.8187 5.93507 41.0235 5.87666 41.2445 5.759C41.4654 5.64218 41.6923 5.4915 41.9259 5.30866C42.1587 5.12581 42.3822 4.9362 42.5947 4.73981C42.8071 4.54342 42.9959 4.36312 43.1593 4.19974C43.1914 4.16673 43.2126 4.15064 43.2202 4.15064C43.2693 4.15572 43.3328 4.16673 43.4107 4.18366C43.4886 4.19974 43.5563 4.22175 43.613 4.24883C43.6706 4.27592 43.6993 4.31148 43.6993 4.35549C43.6993 4.40459 43.6621 4.47147 43.5885 4.55612C43.5148 4.64077 43.4327 4.73727 43.343 4.84647C43.2524 4.95566 43.1711 5.06656 43.0975 5.1783C43.0238 5.29004 42.9874 5.395 42.9874 5.49319C42.9874 5.57531 43.0196 5.65573 43.0856 5.73445C43.1508 5.81402 43.2575 5.85296 43.4048 5.85296C43.6257 5.85296 43.9161 5.74545 44.2758 5.52959C44.6356 5.31458 45.0004 4.99122 45.3687 4.5595L45.4914 4.64161C45.3196 4.9362 45.0986 5.19523 44.8286 5.4187C44.5585 5.64218 44.2699 5.8174 43.9635 5.94269C43.657 6.06797 43.3557 6.13061 43.0611 6.13061C42.758 6.13061 42.5354 6.07051 42.3923 5.95031C42.2493 5.8301 42.1773 5.69974 42.1773 5.55753C42.1773 5.52452 42.1816 5.48812 42.19 5.44749C42.1977 5.40685 42.2061 5.36453 42.2146 5.32051C41.8624 5.6371 41.5416 5.87412 41.2513 6.03242C40.9601 6.18987 40.6629 6.26859 40.3607 6.26859Z" fill="black"/>
<path id="Vector_9" d="M46.4117 6.30637C46.0274 6.30637 45.7227 6.2505 45.4975 6.13876C45.2723 6.02702 45.1132 5.88904 45.0184 5.72567C44.9244 5.56229 44.877 5.39807 44.877 5.2347C44.877 5.07132 44.91 4.94519 44.9752 4.858C45.0412 4.77081 45.1208 4.70563 45.2148 4.66161C45.3087 4.6176 45.3984 4.58543 45.4848 4.56342C45.5711 4.54141 45.6295 4.5194 45.6626 4.49824C45.908 4.31794 46.1332 4.13001 46.3381 3.93362C46.5429 3.73724 46.7224 3.52984 46.8781 3.31144V3.21325C46.8781 3.01178 46.9289 2.86788 47.0314 2.78323C47.1338 2.69858 47.2421 2.65625 47.3564 2.65625C47.4216 2.65625 47.4707 2.66726 47.5037 2.68926C47.5367 2.71127 47.5528 2.73582 47.5528 2.76291C47.5528 2.79 47.5409 2.83402 47.5164 2.89412C47.4918 2.95422 47.4792 3.03041 47.4792 3.12352C47.4792 3.30383 47.5325 3.49852 47.6383 3.70845C47.745 3.91838 47.8508 4.13932 47.9574 4.37127C48.0632 4.60321 48.1166 4.84446 48.1166 5.09502C48.1166 5.16613 48.1106 5.23554 48.0979 5.30327C48.0861 5.37183 48.0675 5.43532 48.0429 5.49542C48.329 5.46241 48.5991 5.37691 48.853 5.23808C49.107 5.09926 49.3525 4.87663 49.5895 4.57104L49.6995 4.65315C49.5438 4.95281 49.311 5.18052 49.0003 5.33628C48.6897 5.49204 48.3494 5.58854 47.9811 5.62663C47.8499 5.86111 47.6434 6.03295 47.3615 6.14215C47.0804 6.25219 46.763 6.30637 46.4117 6.30637ZM46.4363 6.02025C46.5345 6.02025 46.6657 5.99824 46.829 5.95507C46.9924 5.91106 47.1194 5.79931 47.21 5.61986C46.8663 5.57668 46.5615 5.48611 46.2957 5.34982C46.0299 5.21353 45.831 5.07725 45.7006 4.94096C45.5203 4.94689 45.4306 5.04169 45.4306 5.22708C45.4306 5.42347 45.5186 5.60462 45.6947 5.77138C45.8691 5.93645 46.1171 6.02025 46.4363 6.02025ZM47.2709 5.4878C47.287 5.43363 47.2997 5.37607 47.3073 5.31596C47.3158 5.25586 47.32 5.18476 47.32 5.10349C47.32 4.847 47.2726 4.5922 47.1786 4.33825C47.0847 4.0843 47.0051 3.84559 46.9391 3.62211C46.7512 3.82951 46.5522 4.02759 46.344 4.21551C46.1358 4.40343 45.9368 4.56088 45.7489 4.68617C45.8716 4.86055 46.0621 5.02477 46.3194 5.17714C46.5776 5.33035 46.8942 5.43363 47.2709 5.4878Z" fill="black"/>
<path id="Vector_10" d="M50.6454 6.30637C50.261 6.30637 49.9563 6.2505 49.7311 6.13876C49.506 6.02702 49.3468 5.88904 49.252 5.72567C49.158 5.56229 49.1106 5.39807 49.1106 5.2347C49.1106 5.07132 49.1437 4.94519 49.2088 4.858C49.2749 4.77081 49.3544 4.70563 49.4484 4.66161C49.5424 4.6176 49.6321 4.58543 49.7184 4.56342C49.8048 4.54141 49.8632 4.5194 49.8962 4.49824C50.1417 4.31794 50.3669 4.13001 50.5717 3.93362C50.7766 3.73724 50.956 3.52984 51.1118 3.31144V3.21325C51.1118 3.01178 51.1626 2.86788 51.265 2.78323C51.3674 2.69858 51.4758 2.65625 51.59 2.65625C51.6552 2.65625 51.7043 2.66726 51.7373 2.68926C51.7704 2.71127 51.7864 2.73582 51.7864 2.76291C51.7864 2.79 51.7746 2.83402 51.75 2.89412C51.7255 2.95422 51.7128 3.03041 51.7128 3.12352C51.7128 3.30383 51.7661 3.49852 51.8719 3.70845C51.9786 3.91838 52.0844 4.13932 52.1911 4.37127C52.2969 4.60321 52.3502 4.84446 52.3502 5.09502C52.3502 5.16613 52.3443 5.23554 52.3316 5.30327C52.3197 5.37183 52.3011 5.43532 52.2766 5.49542C52.5627 5.46241 52.8327 5.37691 53.0867 5.23808C53.3406 5.09926 53.5861 4.87663 53.8231 4.57104L53.9332 4.65315C53.7774 4.95281 53.5446 5.18052 53.234 5.33628C52.9233 5.49204 52.583 5.58854 52.2148 5.62663C52.0836 5.86111 51.877 6.03295 51.5951 6.14215C51.3149 6.25219 50.9975 6.30637 50.6454 6.30637ZM50.6699 6.02025C50.7681 6.02025 50.8993 5.99824 51.0627 5.95507C51.226 5.91106 51.353 5.79931 51.4436 5.61986C51.0999 5.57668 50.7952 5.48611 50.5294 5.34982C50.2636 5.21353 50.0647 5.07725 49.9343 4.94096C49.754 4.94689 49.6643 5.04169 49.6643 5.22708C49.6643 5.42347 49.7523 5.60462 49.9284 5.77138C50.1036 5.93645 50.3508 6.02025 50.6699 6.02025ZM51.5046 5.4878C51.5206 5.43363 51.5333 5.37607 51.541 5.31596C51.5494 5.25586 51.5537 5.18476 51.5537 5.10349C51.5537 4.847 51.5062 4.5922 51.4123 4.33825C51.3183 4.0843 51.2388 3.84559 51.1727 3.62211C50.9848 3.82951 50.7859 4.02759 50.5776 4.21551C50.3694 4.40343 50.1705 4.56088 49.9825 4.68617C50.1053 4.86055 50.2957 5.02477 50.5531 5.17714C50.8113 5.33035 51.1287 5.43363 51.5046 5.4878Z" fill="black"/>
<path id="Vector_11" d="M54.1199 8.17851C53.9151 8.17851 53.7356 8.14211 53.5799 8.06847C53.4241 7.99482 53.3462 7.88732 53.3462 7.7451C53.3462 7.57072 53.4123 7.41497 53.5426 7.27868C53.673 7.14239 53.8491 7.01711 54.0708 6.90199C54.2918 6.78771 54.5449 6.67851 54.8318 6.57439C55.118 6.47112 55.4168 6.367 55.7275 6.26373C55.8417 6.06226 55.9585 5.83709 56.077 5.58907C56.1956 5.34104 56.3082 5.06677 56.4148 4.76711C56.1532 5.05069 55.873 5.29448 55.5742 5.49934C55.2754 5.70419 54.958 5.80577 54.6228 5.80577C54.467 5.80577 54.3138 5.78291 54.1623 5.73636C54.0107 5.6898 53.8863 5.61785 53.7881 5.51965C53.6899 5.42146 53.6408 5.29617 53.6408 5.14296C53.6408 4.99059 53.6798 4.81282 53.7576 4.61135C53.8355 4.40988 53.9312 4.2135 54.0463 4.02219C54.1606 3.83172 54.2791 3.67342 54.4027 3.5473C54.5263 3.42117 54.6321 3.35938 54.7218 3.35938C54.7548 3.35938 54.8141 3.36784 54.8996 3.38392C54.9859 3.40001 55.0672 3.42371 55.1451 3.45334C55.2229 3.48381 55.2619 3.51513 55.2619 3.5473C55.1882 3.6184 55.1061 3.71914 55.0164 3.85035C54.9258 3.98155 54.8386 4.12715 54.7523 4.28799C54.6668 4.44882 54.5948 4.60543 54.5373 4.75865C54.4797 4.91102 54.4518 5.04222 54.4518 5.15142C54.4518 5.24961 54.4839 5.32834 54.55 5.38844C54.6151 5.44854 54.7303 5.47817 54.8936 5.47817C55.0485 5.47817 55.2229 5.42823 55.4151 5.32665C55.6072 5.22591 55.7994 5.0964 55.9924 4.9381C56.1846 4.77981 56.3623 4.6105 56.5265 4.43104C56.5511 4.37094 56.5731 4.31 56.5943 4.24736C56.6146 4.18471 56.6332 4.12038 56.6493 4.0552C56.6738 3.97901 56.7331 3.89013 56.8271 3.7894C56.921 3.68867 57.0708 3.63787 57.2749 3.63787C57.3155 3.63787 57.3561 3.63957 57.3976 3.64211C57.4382 3.64465 57.4831 3.65142 57.5322 3.66242C57.5322 3.74961 57.4933 3.91214 57.4154 4.14916C57.3375 4.38618 57.2266 4.66384 57.0835 4.97958C56.9405 5.29617 56.7703 5.62038 56.574 5.95306C56.9583 5.85487 57.335 5.69234 57.7032 5.46632C58.0714 5.2403 58.3702 4.9381 58.5988 4.56226L58.7579 4.64437C58.6352 4.90593 58.449 5.13364 58.1992 5.32749C57.9495 5.52134 57.6693 5.68726 57.3587 5.82693C57.048 5.96576 56.7407 6.08173 56.4377 6.17484C56.2252 6.5236 55.9941 6.8512 55.7444 7.15678C55.4947 7.46237 55.2331 7.70955 54.9588 7.89747C54.6862 8.08455 54.4061 8.17851 54.1199 8.17851ZM54.0581 7.9161C54.1809 7.9161 54.3874 7.80859 54.6778 7.59274C54.9681 7.37688 55.2771 6.99934 55.6047 6.45927C55.2695 6.57947 54.958 6.69798 54.6719 6.81565C54.3857 6.93246 54.1563 7.05944 53.9845 7.19657C53.8127 7.33286 53.7272 7.49115 53.7272 7.67146C53.7272 7.71548 53.7517 7.76712 53.8008 7.82722C53.8499 7.88647 53.9354 7.9161 54.0581 7.9161Z" fill="black"/>
<path id="Vector_12" d="M58.8572 5.9624C58.7505 5.9624 58.6591 5.94463 58.5812 5.90907C58.5033 5.87352 58.4644 5.81765 58.4644 5.74146C58.4644 5.68136 58.5008 5.62549 58.5744 5.57386C58.6481 5.52222 58.7404 5.48074 58.8504 5.45111C58.9605 5.42148 59.0688 5.40625 59.1755 5.40625C59.2737 5.40625 59.3515 5.41979 59.4083 5.44688C59.465 5.47397 59.4938 5.52645 59.4938 5.60264C59.4938 5.65766 59.4633 5.71184 59.4015 5.76601C59.3397 5.82019 59.2601 5.86675 59.1619 5.90484C59.0637 5.94293 58.9638 5.9624 58.8572 5.9624Z" fill="black"/>
</g>
</svg>
