<svg width="66" height="71" viewBox="0 0 66 71" fill="none" xmlns="http://www.w3.org/2000/svg">
<path id="Vector" d="M0.687363 26.0343C0.0407804 24.7267 -0.0657962 23.2188 0.391078 21.8422C0.847952 20.4656 1.83085 19.3331 3.12355 18.6939L38.8672 1.0188C40.1599 0.379563 41.6565 0.285938 43.0278 0.758514C44.3991 1.23109 45.5327 2.23116 46.1793 3.53872L57.5563 26.5461C58.2029 27.8537 58.3095 29.3616 57.8526 30.7382C57.3957 32.1148 56.4128 33.2473 55.1201 33.8865L37.2483 42.724L35.623 39.4373L53.4948 30.5997C53.9257 30.3867 54.2534 30.0092 54.4057 29.5503C54.558 29.0914 54.5224 28.5888 54.3069 28.1529L42.9298 5.14554C42.7143 4.70969 42.3364 4.37633 41.8793 4.21881C41.4223 4.06128 40.9234 4.09249 40.4925 4.30557L4.74885 21.9806C4.31795 22.1937 3.99031 22.5712 3.83802 23.0301C3.68573 23.4889 3.72126 23.9916 3.93678 24.4274L6.37473 29.3576L3.1253 30.9644L0.687363 26.0343ZM40.4989 49.2976L64.8696 37.2464C65.3005 37.0333 65.6281 36.6558 65.7804 36.197C65.9327 35.7381 65.8972 35.2355 65.6816 34.7996C65.4661 34.3637 65.0882 34.0304 64.6311 33.8729C64.174 33.7153 63.6752 33.7466 63.2443 33.9596L38.8736 46.0108L40.4989 49.2976ZM24.2518 57.3317C23.8209 57.5448 23.4933 57.9223 23.341 58.3811C23.1887 58.84 23.2242 59.3427 23.4397 59.7785C23.6553 60.2144 24.0331 60.5477 24.4902 60.7052C24.9473 60.8628 25.4462 60.8316 25.8771 60.6185L29.1265 59.0117C29.5574 58.7986 29.885 58.4211 30.0373 57.9622C30.1896 57.5034 30.1541 57.0007 29.9386 56.5649C29.723 56.129 29.3452 55.7957 28.8881 55.6381C28.431 55.4806 27.9321 55.5118 27.5012 55.7249L24.2518 57.3317ZM3.93912 40.7882C3.29254 39.4806 3.18596 37.9727 3.64283 36.5961C4.09971 35.2195 5.08261 34.087 6.37531 33.4478L19.373 27.0205C20.6657 26.3812 22.1623 26.2876 23.5336 26.7602C24.9049 27.2328 26.0385 28.2328 26.6851 29.5404L39.6874 55.8346C40.334 57.1421 40.4406 58.6501 39.9837 60.0267C39.5268 61.4032 38.5439 62.5357 37.2512 63.175L24.2535 69.6023C22.9608 70.2415 21.4642 70.3351 20.093 69.8625C18.7217 69.39 17.5881 68.3899 16.9415 67.0823L3.93912 40.7882ZM8.0006 36.7346C7.5697 36.9476 7.24207 37.3251 7.08978 37.784C6.93749 38.2429 6.97301 38.7455 7.18854 39.1814L20.1909 65.4755C20.4064 65.9114 20.7843 66.2447 21.2414 66.4023C21.6985 66.5598 22.1974 66.5286 22.6283 66.3155L35.6259 59.8882C36.0568 59.6751 36.3845 59.2976 36.5368 58.8388C36.6891 58.3799 36.6535 57.8772 36.438 57.4414L23.4356 31.1472C23.2201 30.7114 22.8422 30.378 22.3852 30.2205C21.9281 30.063 21.4292 30.0942 20.9983 30.3073L8.0006 36.7346Z" fill="#FF87A6" fill-opacity="0.5"/>
</svg>
