<svg width="66" height="70" viewBox="0 0 66 70" fill="none" xmlns="http://www.w3.org/2000/svg">
<path id="Vector" d="M35.7122 20.6811L29.5066 8.30348C28.135 5.56786 25.7453 3.48293 22.863 2.50736C19.9808 1.5318 16.8421 1.7455 14.1376 3.10147C11.433 4.45744 9.38405 6.84459 8.44145 9.73779C7.49886 12.631 7.73984 15.7932 9.11137 18.5288L15.317 30.9065M43.4496 9.942L63.4326 41.2271C64.54 42.9608 63.9231 45.2596 62.1038 46.1717L19.9538 67.3041C19.5249 67.5197 19.055 67.6416 18.5745 67.6619C18.094 67.6823 17.6137 67.6006 17.1648 67.4222C16.7159 67.2437 16.3085 66.9726 15.9689 66.6263C15.6294 66.28 15.3654 65.8663 15.194 65.4121L2.08278 30.6818C1.78084 29.8816 1.7828 29 2.08826 28.2068C2.39373 27.4137 2.98107 26.7651 3.73705 26.3863L39.018 8.69778C40.5843 7.91248 42.4977 8.45046 43.4496 9.942ZM16.3368 30.3952C16.474 30.6688 16.4981 30.985 16.4038 31.2743C16.3095 31.5636 16.1046 31.8023 15.8342 31.9379C15.5637 32.0735 15.2499 32.0949 14.9616 31.9974C14.6734 31.8998 14.4344 31.6913 14.2973 31.4177C14.1601 31.1442 14.136 30.828 14.2303 30.5386C14.3246 30.2493 14.5294 30.0106 14.7999 29.875C15.0704 29.7394 15.3842 29.718 15.6724 29.8156C15.9607 29.9131 16.1996 30.1216 16.3368 30.3952ZM36.732 20.1698C36.8691 20.4434 36.8932 20.7596 36.799 21.0489C36.7047 21.3383 36.4998 21.577 36.2294 21.7126C35.9589 21.8482 35.645 21.8695 35.3568 21.772C35.0686 21.6744 34.8296 21.4659 34.6925 21.1924C34.5553 20.9188 34.5312 20.6026 34.6255 20.3133C34.7197 20.024 34.9246 19.7852 35.1951 19.6496C35.4655 19.514 35.7794 19.4927 36.0676 19.5902C36.3559 19.6878 36.5948 19.8963 36.732 20.1698Z" stroke="#FF87A6" stroke-opacity="0.5" stroke-width="3" stroke-linecap="round" stroke-linejoin="round"/>
</svg>
