<svg width="62" height="58" viewBox="0 0 62 58" fill="none" xmlns="http://www.w3.org/2000/svg">
<path id="Vector" d="M50.5506 0.500175L50.5505 0.500174C49.8039 0.496296 49.1244 0.557189 48.5384 0.672201C47.7529 0.826565 47.1952 1.05948 46.8261 1.30534C46.4539 1.55334 46.3008 1.79446 46.2553 1.96194L46.2552 1.96203C46.2096 2.12989 46.2194 2.41675 46.4148 2.8219C46.6084 3.2234 46.971 3.71014 47.5693 4.24588L47.5693 4.24592C48.7664 5.31801 50.7204 6.38214 53.0613 7.02698L52.9285 7.50902L53.0613 7.02699C55.4023 7.67197 57.6224 7.75779 59.1943 7.44904C59.9799 7.29468 60.5374 7.06178 60.9064 6.81594C61.2786 6.56797 61.4317 6.32683 61.4773 6.15922C61.5229 5.99137 61.5131 5.7045 61.3177 5.29934C61.1241 4.89784 60.7616 4.41109 60.1633 3.87536L60.1633 3.87534C58.9663 2.80329 57.012 1.7394 54.6711 1.09442L50.5506 0.500175ZM50.5506 0.500175C51.795 0.50651 53.2117 0.692464 54.6711 1.0944L50.5506 0.500175ZM33.6587 24.1209C34.2643 24.7313 34.8899 25.3212 35.5345 25.8896L27.7896 33.6861C27.1306 33.137 26.4974 32.5572 25.8918 31.9487C23.5905 29.6322 21.7145 26.917 20.6981 24.4193L34.0137 23.7688M33.6587 24.1209L34.0137 23.7688M33.6587 24.1209C33.6588 24.121 33.6589 24.1211 33.6589 24.1212L34.0137 23.7688M33.6587 24.1209C32.2855 22.7386 31.0046 21.2561 30.0337 19.8673M34.0137 23.7688C32.6548 22.4009 31.3939 20.9403 30.4435 19.5808M30.0337 19.8673L30.4435 19.5808M30.0337 19.8673C30.0337 19.8673 30.0337 19.8673 30.0337 19.8673L30.4435 19.5808M30.0337 19.8673L30.4435 19.5808M43.4668 4.53431C43.9145 5.36499 44.5642 6.12739 45.3085 6.79402C47.0055 8.31395 49.3955 9.55644 52.1627 10.3189C53.5955 10.7136 55.0043 10.9446 56.3384 11.0159L41.5266 25.9255C41.1278 25.7646 40.5425 25.4767 39.843 24.9812C38.68 24.1574 37.3275 22.9821 36.0638 21.7102C34.8001 20.4381 33.6326 19.0763 32.8139 17.9053C32.3195 17.1981 32.0328 16.6067 31.873 16.2046L43.4668 4.53431ZM23.4871 34.36C24.607 35.4873 25.807 36.5338 27.0559 37.4578L9.89219 54.7349C8.63212 53.8608 7.39759 52.8332 6.26266 51.6988C3.39273 48.8301 1.22753 45.3621 0.54651 42.4288L17.4407 25.4231C18.64 28.5876 20.8475 31.7029 23.4871 34.36ZM32.3724 40.4488L15.4834 57.4492C14.6716 57.2465 13.8114 56.9283 12.9285 56.5104L29.9887 39.3377C30.7745 39.7662 31.5712 40.1406 32.3724 40.4488ZM28.6452 15.7105L28.2807 16.0774C28.2986 16.2859 28.3314 16.4897 28.3772 16.6897L28.8047 16.2594C28.7787 16.0797 28.765 15.8971 28.765 15.7105V15.59L28.6452 15.7105ZM36.2659 25.8629C36.139 25.7542 36.0129 25.6446 35.8875 25.5342L36.2659 25.8629ZM41.0489 29.44L33.3658 37.1742C32.4563 36.7984 31.5159 36.3044 30.5742 35.7143L38.2272 28.0111C39.1493 28.6521 40.0519 29.2101 41.0489 29.44Z" stroke="#FF87A6" stroke-opacity="0.8"/>
</svg>
