<svg width="44" height="40" viewBox="0 0 44 40" fill="none" xmlns="http://www.w3.org/2000/svg">
<path id="Vector" d="M8.1675 0.933333C8.42569 0.640626 8.7462 0.405629 9.10699 0.24451C9.46778 0.0833909 9.86029 -2.53351e-05 10.2575 5.77196e-09H33.7425C34.1397 -2.53351e-05 34.5322 0.0833909 34.893 0.24451C35.2538 0.405629 35.5743 0.640626 35.8325 0.933333L43.0072 9.05067C43.6478 9.77555 44 10.6987 44 11.6533V12.3333C44.0001 13.6533 43.575 14.9403 42.784 16.0145C41.993 17.0886 40.8756 17.8963 39.5881 18.3247C38.3006 18.753 36.9072 18.7805 35.6028 18.4034C34.2983 18.0263 33.148 17.2634 32.3125 16.2213C31.7024 16.9834 30.9205 17.5999 30.0268 18.0238C29.1331 18.4476 28.1511 18.6675 27.1562 18.6667C26.1613 18.6677 25.1793 18.4479 24.2856 18.0241C23.3918 17.6002 22.61 16.9835 22 16.2213C21.39 16.9835 20.6082 17.6002 19.7144 18.0241C18.8207 18.4479 17.8387 18.6677 16.8438 18.6667C15.8488 18.6677 14.8668 18.4479 13.9731 18.0241C13.0793 17.6002 12.2975 16.9835 11.6875 16.2213C10.852 17.2634 9.70168 18.0263 8.39723 18.4034C7.09278 18.7805 5.69942 18.753 4.41189 18.3247C3.12436 17.8963 2.00701 17.0886 1.216 16.0145C0.42499 14.9403 -0.000150146 13.6533 3.97775e-08 12.3333V11.6533C3.46707e-05 10.6987 0.352156 9.77555 0.99275 9.05067L8.17025 0.930667L8.1675 0.933333ZM13.0625 12.3333C13.0625 13.3058 13.4609 14.2384 14.17 14.9261C14.8791 15.6137 15.8409 16 16.8438 16C17.8466 16 18.8084 15.6137 19.5175 14.9261C20.2266 14.2384 20.625 13.3058 20.625 12.3333C20.625 11.9797 20.7699 11.6406 21.0277 11.3905C21.2856 11.1405 21.6353 11 22 11C22.3647 11 22.7144 11.1405 22.9723 11.3905C23.2301 11.6406 23.375 11.9797 23.375 12.3333C23.375 13.3058 23.7734 14.2384 24.4825 14.9261C25.1916 15.6137 26.1534 16 27.1562 16C28.1591 16 29.1209 15.6137 29.83 14.9261C30.5391 14.2384 30.9375 13.3058 30.9375 12.3333C30.9375 11.9797 31.0824 11.6406 31.3402 11.3905C31.5981 11.1405 31.9478 11 32.3125 11C32.6772 11 33.0269 11.1405 33.2848 11.3905C33.5426 11.6406 33.6875 11.9797 33.6875 12.3333C33.6875 13.3058 34.0859 14.2384 34.795 14.9261C35.5041 15.6137 36.4659 16 37.4688 16C38.4716 16 39.4334 15.6137 40.1425 14.9261C40.8516 14.2384 41.25 13.3058 41.25 12.3333V11.6533C41.25 11.3355 41.133 11.0282 40.92 10.7867L33.7425 2.66667H10.2575L3.08 10.7867C2.867 11.0282 2.74997 11.3355 2.75 11.6533V12.3333C2.75 13.3058 3.14838 14.2384 3.8575 14.9261C4.56662 15.6137 5.5284 16 6.53125 16C7.5341 16 8.49588 15.6137 9.205 14.9261C9.91412 14.2384 10.3125 13.3058 10.3125 12.3333C10.3125 11.9797 10.4574 11.6406 10.7152 11.3905C10.9731 11.1405 11.3228 11 11.6875 11C12.0522 11 12.4019 11.1405 12.6598 11.3905C12.9176 11.6406 13.0625 11.9797 13.0625 12.3333ZM4.125 20C4.48967 20 4.83941 20.1405 5.09727 20.3905C5.35513 20.6406 5.5 20.9797 5.5 21.3333V37.3333H8.25V24C8.25 23.2928 8.53973 22.6145 9.05546 22.1144C9.57118 21.6143 10.2707 21.3333 11 21.3333H19.25C19.9793 21.3333 20.6788 21.6143 21.1945 22.1144C21.7103 22.6145 22 23.2928 22 24V37.3333H38.5V21.3333C38.5 20.9797 38.6449 20.6406 38.9027 20.3905C39.1606 20.1405 39.5103 20 39.875 20C40.2397 20 40.5894 20.1405 40.8473 20.3905C41.1051 20.6406 41.25 20.9797 41.25 21.3333V37.3333H42.625C42.9897 37.3333 43.3394 37.4738 43.5973 37.7239C43.8551 37.9739 44 38.313 44 38.6667C44 39.0203 43.8551 39.3594 43.5973 39.6095C43.3394 39.8595 42.9897 40 42.625 40H1.375C1.01033 40 0.660591 39.8595 0.402728 39.6095C0.144866 39.3594 3.97775e-08 39.0203 3.97775e-08 38.6667C3.97775e-08 38.313 0.144866 37.9739 0.402728 37.7239C0.660591 37.4738 1.01033 37.3333 1.375 37.3333H2.75V21.3333C2.75 20.9797 2.89487 20.6406 3.15273 20.3905C3.41059 20.1405 3.76033 20 4.125 20ZM11 37.3333H19.25V24H11V37.3333ZM24.75 24C24.75 23.2928 25.0397 22.6145 25.5555 22.1144C26.0712 21.6143 26.7707 21.3333 27.5 21.3333H33C33.7293 21.3333 34.4288 21.6143 34.9445 22.1144C35.4603 22.6145 35.75 23.2928 35.75 24V32C35.75 32.7072 35.4603 33.3855 34.9445 33.8856C34.4288 34.3857 33.7293 34.6667 33 34.6667H27.5C26.7707 34.6667 26.0712 34.3857 25.5555 33.8856C25.0397 33.3855 24.75 32.7072 24.75 32V24ZM33 24H27.5V32H33V24Z" fill="#FF87A6" fill-opacity="0.5"/>
</svg>
